<mxfile host="app.diagrams.net" modified="2020-12-30T13:40:03.023Z" agent="5.0 (Macintosh; Intel Mac OS X 10_15_6) AppleWebKit/537.36 (KHTML, like Gecko) Chrome/87.0.4280.88 Safari/537.36" etag="JrFukrxwKJ4OLQFWl26z" version="14.0.4" type="github">
  <diagram id="7wadrBd9jNyvTk4XhTji" name="Page-1">
    <mxGraphModel dx="845" dy="576" grid="1" gridSize="10" guides="1" tooltips="1" connect="1" arrows="1" fold="1" page="1" pageScale="1" pageWidth="827" pageHeight="1169" math="0" shadow="0">
      <root>
        <mxCell id="0" />
        <mxCell id="1" parent="0" />
        <mxCell id="YEdMbnzYhF6J3DKTKvdj-30" style="edgeStyle=orthogonalEdgeStyle;rounded=0;orthogonalLoop=1;jettySize=auto;html=1;exitX=0.5;exitY=1;exitDx=0;exitDy=0;entryX=0.5;entryY=0;entryDx=0;entryDy=0;fontSize=13;" edge="1" parent="1" source="YEdMbnzYhF6J3DKTKvdj-12" target="YEdMbnzYhF6J3DKTKvdj-22">
          <mxGeometry relative="1" as="geometry" />
        </mxCell>
        <mxCell id="YEdMbnzYhF6J3DKTKvdj-12" value="离线评估+模型选定" style="rounded=1;whiteSpace=wrap;html=1;fontSize=7;verticalAlign=bottom;fillColor=#f5f5f5;strokeColor=#666666;fontColor=#333333;" vertex="1" parent="1">
          <mxGeometry x="540" y="51.25" width="210" height="157.5" as="geometry" />
        </mxCell>
        <mxCell id="YEdMbnzYhF6J3DKTKvdj-2" value="K值选取+聚类" style="rounded=1;whiteSpace=wrap;html=1;fontSize=7;verticalAlign=bottom;fillColor=#f5f5f5;strokeColor=#666666;fontColor=#333333;" vertex="1" parent="1">
          <mxGeometry x="210" y="51.25" width="310" height="157.5" as="geometry" />
        </mxCell>
        <mxCell id="YEdMbnzYhF6J3DKTKvdj-11" style="edgeStyle=orthogonalEdgeStyle;rounded=0;orthogonalLoop=1;jettySize=auto;html=1;exitX=1;exitY=0.5;exitDx=0;exitDy=0;entryX=0;entryY=0.5;entryDx=0;entryDy=0;fontSize=13;" edge="1" parent="1" source="YEdMbnzYhF6J3DKTKvdj-1" target="YEdMbnzYhF6J3DKTKvdj-3">
          <mxGeometry relative="1" as="geometry" />
        </mxCell>
        <mxCell id="YEdMbnzYhF6J3DKTKvdj-1" value="训练多个&lt;br&gt;u2i模型" style="rounded=1;whiteSpace=wrap;html=1;fillColor=#dae8fc;strokeColor=#6c8ebf;fontSize=13;" vertex="1" parent="1">
          <mxGeometry x="80" y="100" width="110" height="60" as="geometry" />
        </mxCell>
        <mxCell id="YEdMbnzYhF6J3DKTKvdj-6" style="edgeStyle=orthogonalEdgeStyle;rounded=0;orthogonalLoop=1;jettySize=auto;html=1;exitX=1;exitY=0.5;exitDx=0;exitDy=0;entryX=0;entryY=0.5;entryDx=0;entryDy=0;fontSize=7;" edge="1" parent="1" source="YEdMbnzYhF6J3DKTKvdj-3" target="YEdMbnzYhF6J3DKTKvdj-4">
          <mxGeometry relative="1" as="geometry" />
        </mxCell>
        <mxCell id="YEdMbnzYhF6J3DKTKvdj-3" value="UICHttp&lt;br&gt;接口获取&lt;br&gt;Vector" style="rounded=1;whiteSpace=wrap;html=1;fontSize=7;" vertex="1" parent="1">
          <mxGeometry x="230" y="80" width="70" height="100" as="geometry" />
        </mxCell>
        <mxCell id="YEdMbnzYhF6J3DKTKvdj-7" style="edgeStyle=orthogonalEdgeStyle;rounded=0;orthogonalLoop=1;jettySize=auto;html=1;exitX=1;exitY=0.5;exitDx=0;exitDy=0;entryX=0;entryY=0.5;entryDx=0;entryDy=0;fontSize=7;" edge="1" parent="1" source="YEdMbnzYhF6J3DKTKvdj-4" target="YEdMbnzYhF6J3DKTKvdj-5">
          <mxGeometry relative="1" as="geometry" />
        </mxCell>
        <mxCell id="YEdMbnzYhF6J3DKTKvdj-4" value="CH和SH&lt;br&gt;计算&lt;br&gt;确定K值" style="rounded=1;whiteSpace=wrap;html=1;fontSize=7;" vertex="1" parent="1">
          <mxGeometry x="330" y="80" width="70" height="100" as="geometry" />
        </mxCell>
        <mxCell id="YEdMbnzYhF6J3DKTKvdj-18" style="edgeStyle=orthogonalEdgeStyle;rounded=0;orthogonalLoop=1;jettySize=auto;html=1;exitX=1;exitY=0.5;exitDx=0;exitDy=0;fontSize=13;" edge="1" parent="1" source="YEdMbnzYhF6J3DKTKvdj-5" target="YEdMbnzYhF6J3DKTKvdj-14">
          <mxGeometry relative="1" as="geometry" />
        </mxCell>
        <mxCell id="YEdMbnzYhF6J3DKTKvdj-28" style="edgeStyle=orthogonalEdgeStyle;rounded=0;orthogonalLoop=1;jettySize=auto;html=1;exitX=0.5;exitY=1;exitDx=0;exitDy=0;entryX=0;entryY=0.5;entryDx=0;entryDy=0;fontSize=13;dashed=1;" edge="1" parent="1" source="YEdMbnzYhF6J3DKTKvdj-5" target="YEdMbnzYhF6J3DKTKvdj-22">
          <mxGeometry relative="1" as="geometry" />
        </mxCell>
        <mxCell id="YEdMbnzYhF6J3DKTKvdj-5" value="聚类结果" style="rounded=1;whiteSpace=wrap;html=1;fontSize=7;" vertex="1" parent="1">
          <mxGeometry x="430" y="80" width="70" height="100" as="geometry" />
        </mxCell>
        <mxCell id="YEdMbnzYhF6J3DKTKvdj-13" style="edgeStyle=orthogonalEdgeStyle;rounded=0;orthogonalLoop=1;jettySize=auto;html=1;exitX=1;exitY=0.5;exitDx=0;exitDy=0;entryX=0;entryY=0.5;entryDx=0;entryDy=0;fontSize=7;" edge="1" parent="1" source="YEdMbnzYhF6J3DKTKvdj-14" target="YEdMbnzYhF6J3DKTKvdj-16">
          <mxGeometry relative="1" as="geometry" />
        </mxCell>
        <mxCell id="YEdMbnzYhF6J3DKTKvdj-14" value="u2i模型&lt;br&gt;离线评估" style="rounded=1;whiteSpace=wrap;html=1;fontSize=7;" vertex="1" parent="1">
          <mxGeometry x="560" y="80" width="70" height="100" as="geometry" />
        </mxCell>
        <mxCell id="YEdMbnzYhF6J3DKTKvdj-16" value="确定&lt;br&gt;最优模型" style="rounded=1;whiteSpace=wrap;html=1;fontSize=7;" vertex="1" parent="1">
          <mxGeometry x="660" y="80" width="70" height="100" as="geometry" />
        </mxCell>
        <mxCell id="YEdMbnzYhF6J3DKTKvdj-29" style="edgeStyle=orthogonalEdgeStyle;rounded=0;orthogonalLoop=1;jettySize=auto;html=1;exitX=0;exitY=0.5;exitDx=0;exitDy=0;dashed=1;fontSize=13;" edge="1" parent="1" source="YEdMbnzYhF6J3DKTKvdj-19">
          <mxGeometry relative="1" as="geometry">
            <mxPoint x="470" y="260" as="targetPoint" />
          </mxGeometry>
        </mxCell>
        <mxCell id="YEdMbnzYhF6J3DKTKvdj-19" value="最优参数&lt;br&gt;&amp;lt; model, K &amp;gt;" style="rounded=1;whiteSpace=wrap;html=1;fontSize=13;fillColor=#fff2cc;strokeColor=#d6b656;" vertex="1" parent="1">
          <mxGeometry x="585" y="230" width="120" height="60" as="geometry" />
        </mxCell>
        <mxCell id="YEdMbnzYhF6J3DKTKvdj-22" value="u2u2i应用" style="rounded=1;whiteSpace=wrap;html=1;fontSize=7;verticalAlign=bottom;fillColor=#f5f5f5;strokeColor=#666666;fontColor=#333333;" vertex="1" parent="1">
          <mxGeometry x="540" y="310" width="210" height="180" as="geometry" />
        </mxCell>
        <mxCell id="YEdMbnzYhF6J3DKTKvdj-24" value="聚类兴趣召回" style="rounded=1;whiteSpace=wrap;html=1;fontSize=13;" vertex="1" parent="1">
          <mxGeometry x="585" y="330" width="120" height="30" as="geometry" />
        </mxCell>
        <mxCell id="YEdMbnzYhF6J3DKTKvdj-25" value="聚类热门召回" style="rounded=1;whiteSpace=wrap;html=1;fontSize=13;" vertex="1" parent="1">
          <mxGeometry x="585" y="380" width="120" height="30" as="geometry" />
        </mxCell>
        <mxCell id="YEdMbnzYhF6J3DKTKvdj-26" value="聚类ucf召回" style="rounded=1;whiteSpace=wrap;html=1;fontSize=13;" vertex="1" parent="1">
          <mxGeometry x="585" y="430" width="120" height="30" as="geometry" />
        </mxCell>
      </root>
    </mxGraphModel>
  </diagram>
</mxfile>
